<mxfile host="app.diagrams.net" modified="2023-10-15T00:36:19.675Z" agent="Mozilla/5.0 (Windows NT 10.0; Win64; x64) AppleWebKit/537.36 (KHTML, like Gecko) Chrome/118.0.0.0 Safari/537.36" etag="XloSPESvuTaukd4dQK7E" version="22.0.4" type="device">
  <diagram name="Page-1" id="zQOSD3sO4bzn5gIpY2M3">
    <mxGraphModel dx="1434" dy="806" grid="1" gridSize="10" guides="1" tooltips="1" connect="1" arrows="1" fold="1" page="1" pageScale="1" pageWidth="850" pageHeight="1100" math="0" shadow="0">
      <root>
        <mxCell id="0" />
        <mxCell id="1" parent="0" />
        <mxCell id="lap_b4fR-55QhpHCvvOF-13" style="edgeStyle=orthogonalEdgeStyle;rounded=0;orthogonalLoop=1;jettySize=auto;html=1;entryX=0;entryY=0.5;entryDx=0;entryDy=0;" parent="1" source="lap_b4fR-55QhpHCvvOF-1" target="lap_b4fR-55QhpHCvvOF-2" edge="1">
          <mxGeometry relative="1" as="geometry" />
        </mxCell>
        <mxCell id="lap_b4fR-55QhpHCvvOF-1" value="Metro Station 17 Entrance" style="rounded=0;whiteSpace=wrap;html=1;" parent="1" vertex="1">
          <mxGeometry x="20" y="160" width="120" height="60" as="geometry" />
        </mxCell>
        <mxCell id="lap_b4fR-55QhpHCvvOF-8" value="" style="edgeStyle=orthogonalEdgeStyle;rounded=0;orthogonalLoop=1;jettySize=auto;html=1;endArrow=none;endFill=0;" parent="1" source="lap_b4fR-55QhpHCvvOF-2" target="lap_b4fR-55QhpHCvvOF-7" edge="1">
          <mxGeometry relative="1" as="geometry" />
        </mxCell>
        <mxCell id="lap_b4fR-55QhpHCvvOF-10" value="" style="edgeStyle=orthogonalEdgeStyle;rounded=0;orthogonalLoop=1;jettySize=auto;html=1;endArrow=none;endFill=0;" parent="1" source="lap_b4fR-55QhpHCvvOF-2" target="lap_b4fR-55QhpHCvvOF-9" edge="1">
          <mxGeometry relative="1" as="geometry" />
        </mxCell>
        <mxCell id="lap_b4fR-55QhpHCvvOF-2" value="Subway Platform 1" style="rounded=1;whiteSpace=wrap;html=1;" parent="1" vertex="1">
          <mxGeometry x="160" y="160" width="120" height="60" as="geometry" />
        </mxCell>
        <mxCell id="oGZRmLfjtdyFwrNTz8b4-7" style="edgeStyle=orthogonalEdgeStyle;rounded=0;orthogonalLoop=1;jettySize=auto;html=1;exitX=0.5;exitY=0;exitDx=0;exitDy=0;entryX=0.5;entryY=1;entryDx=0;entryDy=0;endArrow=none;endFill=0;" parent="1" source="lap_b4fR-55QhpHCvvOF-7" target="oGZRmLfjtdyFwrNTz8b4-1" edge="1">
          <mxGeometry relative="1" as="geometry" />
        </mxCell>
        <mxCell id="lap_b4fR-55QhpHCvvOF-7" value="Subway Tunnel 1" style="whiteSpace=wrap;html=1;rounded=1;" parent="1" vertex="1">
          <mxGeometry x="160" y="90" width="120" height="60" as="geometry" />
        </mxCell>
        <mxCell id="lap_b4fR-55QhpHCvvOF-12" value="" style="edgeStyle=orthogonalEdgeStyle;rounded=0;orthogonalLoop=1;jettySize=auto;html=1;endArrow=none;endFill=0;" parent="1" source="lap_b4fR-55QhpHCvvOF-9" target="lap_b4fR-55QhpHCvvOF-11" edge="1">
          <mxGeometry relative="1" as="geometry" />
        </mxCell>
        <mxCell id="lap_b4fR-55QhpHCvvOF-15" value="" style="edgeStyle=orthogonalEdgeStyle;rounded=0;orthogonalLoop=1;jettySize=auto;html=1;endArrow=none;endFill=0;" parent="1" source="lap_b4fR-55QhpHCvvOF-9" target="lap_b4fR-55QhpHCvvOF-14" edge="1">
          <mxGeometry relative="1" as="geometry" />
        </mxCell>
        <mxCell id="lap_b4fR-55QhpHCvvOF-9" value="Subway Tunnel 2" style="whiteSpace=wrap;html=1;rounded=1;" parent="1" vertex="1">
          <mxGeometry x="160" y="250" width="120" height="60" as="geometry" />
        </mxCell>
        <mxCell id="lap_b4fR-55QhpHCvvOF-19" value="" style="edgeStyle=orthogonalEdgeStyle;rounded=0;orthogonalLoop=1;jettySize=auto;html=1;endArrow=none;endFill=0;" parent="1" source="lap_b4fR-55QhpHCvvOF-11" target="lap_b4fR-55QhpHCvvOF-18" edge="1">
          <mxGeometry relative="1" as="geometry" />
        </mxCell>
        <mxCell id="lap_b4fR-55QhpHCvvOF-22" value="" style="edgeStyle=orthogonalEdgeStyle;rounded=0;orthogonalLoop=1;jettySize=auto;html=1;endArrow=none;endFill=0;" parent="1" source="lap_b4fR-55QhpHCvvOF-11" target="lap_b4fR-55QhpHCvvOF-21" edge="1">
          <mxGeometry relative="1" as="geometry" />
        </mxCell>
        <mxCell id="lap_b4fR-55QhpHCvvOF-11" value="Service Tunnel 1" style="whiteSpace=wrap;html=1;rounded=1;" parent="1" vertex="1">
          <mxGeometry x="330" y="250" width="120" height="60" as="geometry" />
        </mxCell>
        <mxCell id="lap_b4fR-55QhpHCvvOF-17" value="" style="edgeStyle=orthogonalEdgeStyle;rounded=0;orthogonalLoop=1;jettySize=auto;html=1;endArrow=none;endFill=0;" parent="1" source="lap_b4fR-55QhpHCvvOF-14" target="lap_b4fR-55QhpHCvvOF-16" edge="1">
          <mxGeometry relative="1" as="geometry" />
        </mxCell>
        <mxCell id="lap_b4fR-55QhpHCvvOF-14" value="Subway Tunnel 3" style="whiteSpace=wrap;html=1;rounded=1;" parent="1" vertex="1">
          <mxGeometry x="160" y="340" width="120" height="60" as="geometry" />
        </mxCell>
        <mxCell id="lap_b4fR-55QhpHCvvOF-26" value="" style="edgeStyle=orthogonalEdgeStyle;rounded=0;orthogonalLoop=1;jettySize=auto;html=1;endArrow=none;endFill=0;" parent="1" source="lap_b4fR-55QhpHCvvOF-16" target="lap_b4fR-55QhpHCvvOF-25" edge="1">
          <mxGeometry relative="1" as="geometry" />
        </mxCell>
        <mxCell id="lap_b4fR-55QhpHCvvOF-16" value="Subway Platform 2" style="whiteSpace=wrap;html=1;rounded=1;" parent="1" vertex="1">
          <mxGeometry x="160" y="430" width="120" height="60" as="geometry" />
        </mxCell>
        <mxCell id="lap_b4fR-55QhpHCvvOF-18" value="Generator Room" style="whiteSpace=wrap;html=1;rounded=1;" parent="1" vertex="1">
          <mxGeometry x="480" y="250" width="120" height="60" as="geometry" />
        </mxCell>
        <mxCell id="lap_b4fR-55QhpHCvvOF-24" value="" style="edgeStyle=orthogonalEdgeStyle;rounded=0;orthogonalLoop=1;jettySize=auto;html=1;endArrow=none;endFill=0;" parent="1" source="lap_b4fR-55QhpHCvvOF-21" target="lap_b4fR-55QhpHCvvOF-23" edge="1">
          <mxGeometry relative="1" as="geometry" />
        </mxCell>
        <mxCell id="lap_b4fR-55QhpHCvvOF-21" value="Sewer Access&lt;br&gt;Tunnel" style="whiteSpace=wrap;html=1;rounded=1;" parent="1" vertex="1">
          <mxGeometry x="330" y="340" width="120" height="60" as="geometry" />
        </mxCell>
        <mxCell id="lap_b4fR-55QhpHCvvOF-34" value="" style="edgeStyle=orthogonalEdgeStyle;rounded=0;orthogonalLoop=1;jettySize=auto;html=1;endArrow=none;endFill=0;" parent="1" source="lap_b4fR-55QhpHCvvOF-23" target="lap_b4fR-55QhpHCvvOF-33" edge="1">
          <mxGeometry relative="1" as="geometry" />
        </mxCell>
        <mxCell id="lap_b4fR-55QhpHCvvOF-23" value="Sewer Tunnel 1" style="whiteSpace=wrap;html=1;rounded=1;" parent="1" vertex="1">
          <mxGeometry x="480" y="340" width="120" height="60" as="geometry" />
        </mxCell>
        <mxCell id="lap_b4fR-55QhpHCvvOF-28" value="" style="edgeStyle=orthogonalEdgeStyle;rounded=0;orthogonalLoop=1;jettySize=auto;html=1;endArrow=none;endFill=0;" parent="1" source="lap_b4fR-55QhpHCvvOF-25" target="lap_b4fR-55QhpHCvvOF-27" edge="1">
          <mxGeometry relative="1" as="geometry" />
        </mxCell>
        <mxCell id="lap_b4fR-55QhpHCvvOF-25" value="Metro Station 18" style="whiteSpace=wrap;html=1;rounded=1;" parent="1" vertex="1">
          <mxGeometry x="10" y="430" width="120" height="60" as="geometry" />
        </mxCell>
        <mxCell id="lap_b4fR-55QhpHCvvOF-30" value="" style="edgeStyle=orthogonalEdgeStyle;rounded=0;orthogonalLoop=1;jettySize=auto;html=1;endArrow=none;endFill=0;" parent="1" source="lap_b4fR-55QhpHCvvOF-27" target="lap_b4fR-55QhpHCvvOF-29" edge="1">
          <mxGeometry relative="1" as="geometry" />
        </mxCell>
        <mxCell id="lap_b4fR-55QhpHCvvOF-61" style="edgeStyle=orthogonalEdgeStyle;rounded=0;orthogonalLoop=1;jettySize=auto;html=1;exitX=0.75;exitY=1;exitDx=0;exitDy=0;entryX=0.5;entryY=0;entryDx=0;entryDy=0;endArrow=none;endFill=0;" parent="1" source="lap_b4fR-55QhpHCvvOF-27" target="lap_b4fR-55QhpHCvvOF-60" edge="1">
          <mxGeometry relative="1" as="geometry" />
        </mxCell>
        <mxCell id="lap_b4fR-55QhpHCvvOF-27" value="18st Plaza" style="whiteSpace=wrap;html=1;rounded=1;" parent="1" vertex="1">
          <mxGeometry x="10" y="750" width="120" height="60" as="geometry" />
        </mxCell>
        <mxCell id="lap_b4fR-55QhpHCvvOF-32" value="" style="edgeStyle=orthogonalEdgeStyle;rounded=0;orthogonalLoop=1;jettySize=auto;html=1;endArrow=none;endFill=0;" parent="1" source="lap_b4fR-55QhpHCvvOF-29" target="lap_b4fR-55QhpHCvvOF-31" edge="1">
          <mxGeometry relative="1" as="geometry" />
        </mxCell>
        <mxCell id="lap_b4fR-55QhpHCvvOF-43" value="" style="edgeStyle=orthogonalEdgeStyle;rounded=0;orthogonalLoop=1;jettySize=auto;html=1;endArrow=none;endFill=0;" parent="1" source="lap_b4fR-55QhpHCvvOF-29" target="lap_b4fR-55QhpHCvvOF-42" edge="1">
          <mxGeometry relative="1" as="geometry">
            <Array as="points">
              <mxPoint x="185" y="740" />
              <mxPoint x="185" y="740" />
            </Array>
          </mxGeometry>
        </mxCell>
        <mxCell id="lap_b4fR-55QhpHCvvOF-47" style="edgeStyle=orthogonalEdgeStyle;rounded=0;orthogonalLoop=1;jettySize=auto;html=1;exitX=0.75;exitY=0;exitDx=0;exitDy=0;endArrow=none;endFill=0;" parent="1" source="lap_b4fR-55QhpHCvvOF-29" target="lap_b4fR-55QhpHCvvOF-44" edge="1">
          <mxGeometry relative="1" as="geometry">
            <Array as="points">
              <mxPoint x="245" y="750" />
            </Array>
          </mxGeometry>
        </mxCell>
        <mxCell id="lap_b4fR-55QhpHCvvOF-49" style="edgeStyle=orthogonalEdgeStyle;rounded=0;orthogonalLoop=1;jettySize=auto;html=1;exitX=0.75;exitY=1;exitDx=0;exitDy=0;entryX=0.75;entryY=0;entryDx=0;entryDy=0;endArrow=none;endFill=0;" parent="1" source="lap_b4fR-55QhpHCvvOF-29" target="lap_b4fR-55QhpHCvvOF-46" edge="1">
          <mxGeometry relative="1" as="geometry" />
        </mxCell>
        <mxCell id="lap_b4fR-55QhpHCvvOF-29" value="18st 1" style="whiteSpace=wrap;html=1;rounded=1;" parent="1" vertex="1">
          <mxGeometry x="160" y="750" width="120" height="60" as="geometry" />
        </mxCell>
        <mxCell id="lap_b4fR-55QhpHCvvOF-38" value="" style="edgeStyle=orthogonalEdgeStyle;rounded=0;orthogonalLoop=1;jettySize=auto;html=1;endArrow=none;endFill=0;" parent="1" source="lap_b4fR-55QhpHCvvOF-31" target="lap_b4fR-55QhpHCvvOF-37" edge="1">
          <mxGeometry relative="1" as="geometry" />
        </mxCell>
        <mxCell id="lap_b4fR-55QhpHCvvOF-31" value="18st 2" style="whiteSpace=wrap;html=1;rounded=1;" parent="1" vertex="1">
          <mxGeometry x="310" y="750" width="120" height="60" as="geometry" />
        </mxCell>
        <mxCell id="lap_b4fR-55QhpHCvvOF-74" style="edgeStyle=orthogonalEdgeStyle;rounded=0;orthogonalLoop=1;jettySize=auto;html=1;entryX=0;entryY=0.5;entryDx=0;entryDy=0;endArrow=none;endFill=0;" parent="1" source="lap_b4fR-55QhpHCvvOF-33" target="lap_b4fR-55QhpHCvvOF-35" edge="1">
          <mxGeometry relative="1" as="geometry" />
        </mxCell>
        <mxCell id="lap_b4fR-55QhpHCvvOF-33" value="Sewer Tunnel 2" style="whiteSpace=wrap;html=1;rounded=1;" parent="1" vertex="1">
          <mxGeometry x="480" y="470" width="120" height="60" as="geometry" />
        </mxCell>
        <mxCell id="lap_b4fR-55QhpHCvvOF-41" value="" style="edgeStyle=orthogonalEdgeStyle;rounded=0;orthogonalLoop=1;jettySize=auto;html=1;endArrow=none;endFill=0;" parent="1" source="lap_b4fR-55QhpHCvvOF-35" target="lap_b4fR-55QhpHCvvOF-40" edge="1">
          <mxGeometry relative="1" as="geometry" />
        </mxCell>
        <mxCell id="lap_b4fR-55QhpHCvvOF-35" value="Sewer Tunnel 3" style="whiteSpace=wrap;html=1;rounded=1;" parent="1" vertex="1">
          <mxGeometry x="600" y="550" width="120" height="60" as="geometry" />
        </mxCell>
        <mxCell id="lap_b4fR-55QhpHCvvOF-75" style="edgeStyle=orthogonalEdgeStyle;rounded=0;orthogonalLoop=1;jettySize=auto;html=1;exitX=1;exitY=0.5;exitDx=0;exitDy=0;entryX=0.5;entryY=1;entryDx=0;entryDy=0;endArrow=none;endFill=0;" parent="1" source="lap_b4fR-55QhpHCvvOF-37" target="lap_b4fR-55QhpHCvvOF-35" edge="1">
          <mxGeometry relative="1" as="geometry" />
        </mxCell>
        <mxCell id="lap_b4fR-55QhpHCvvOF-37" value="18st 3" style="whiteSpace=wrap;html=1;rounded=1;" parent="1" vertex="1">
          <mxGeometry x="480" y="750" width="120" height="60" as="geometry" />
        </mxCell>
        <mxCell id="lap_b4fR-55QhpHCvvOF-40" value="Sewer Pit" style="whiteSpace=wrap;html=1;rounded=1;" parent="1" vertex="1">
          <mxGeometry x="730" y="550" width="120" height="60" as="geometry" />
        </mxCell>
        <mxCell id="lap_b4fR-55QhpHCvvOF-42" value="35 18st" style="whiteSpace=wrap;html=1;rounded=1;" parent="1" vertex="1">
          <mxGeometry x="160" y="650" width="50" height="60" as="geometry" />
        </mxCell>
        <mxCell id="lap_b4fR-55QhpHCvvOF-44" value="37 18st" style="whiteSpace=wrap;html=1;rounded=1;" parent="1" vertex="1">
          <mxGeometry x="220" y="650" width="50" height="60" as="geometry" />
        </mxCell>
        <mxCell id="lap_b4fR-55QhpHCvvOF-45" value="36 18st" style="whiteSpace=wrap;html=1;rounded=1;" parent="1" vertex="1">
          <mxGeometry x="160" y="840" width="50" height="60" as="geometry" />
        </mxCell>
        <mxCell id="lap_b4fR-55QhpHCvvOF-46" value="38 18st" style="whiteSpace=wrap;html=1;rounded=1;" parent="1" vertex="1">
          <mxGeometry x="220" y="840" width="50" height="60" as="geometry" />
        </mxCell>
        <mxCell id="lap_b4fR-55QhpHCvvOF-50" style="edgeStyle=orthogonalEdgeStyle;rounded=0;orthogonalLoop=1;jettySize=auto;html=1;exitX=0.5;exitY=0;exitDx=0;exitDy=0;entryX=0.212;entryY=1.015;entryDx=0;entryDy=0;entryPerimeter=0;endArrow=none;endFill=0;" parent="1" source="lap_b4fR-55QhpHCvvOF-45" target="lap_b4fR-55QhpHCvvOF-29" edge="1">
          <mxGeometry relative="1" as="geometry" />
        </mxCell>
        <mxCell id="lap_b4fR-55QhpHCvvOF-51" value="39 18st" style="whiteSpace=wrap;html=1;rounded=1;" parent="1" vertex="1">
          <mxGeometry x="310" y="650" width="50" height="60" as="geometry" />
        </mxCell>
        <mxCell id="lap_b4fR-55QhpHCvvOF-52" value="40 18st" style="whiteSpace=wrap;html=1;rounded=1;" parent="1" vertex="1">
          <mxGeometry x="310" y="840" width="50" height="60" as="geometry" />
        </mxCell>
        <mxCell id="lap_b4fR-55QhpHCvvOF-56" style="edgeStyle=orthogonalEdgeStyle;rounded=0;orthogonalLoop=1;jettySize=auto;html=1;exitX=0.5;exitY=1;exitDx=0;exitDy=0;entryX=0.75;entryY=0;entryDx=0;entryDy=0;endArrow=none;endFill=0;" parent="1" source="lap_b4fR-55QhpHCvvOF-53" target="lap_b4fR-55QhpHCvvOF-31" edge="1">
          <mxGeometry relative="1" as="geometry" />
        </mxCell>
        <mxCell id="lap_b4fR-55QhpHCvvOF-53" value="41 18st" style="whiteSpace=wrap;html=1;rounded=1;" parent="1" vertex="1">
          <mxGeometry x="375" y="650" width="50" height="60" as="geometry" />
        </mxCell>
        <mxCell id="lap_b4fR-55QhpHCvvOF-57" style="edgeStyle=orthogonalEdgeStyle;rounded=0;orthogonalLoop=1;jettySize=auto;html=1;exitX=0.5;exitY=0;exitDx=0;exitDy=0;entryX=0.75;entryY=1;entryDx=0;entryDy=0;endArrow=none;endFill=0;" parent="1" source="lap_b4fR-55QhpHCvvOF-54" target="lap_b4fR-55QhpHCvvOF-31" edge="1">
          <mxGeometry relative="1" as="geometry" />
        </mxCell>
        <mxCell id="lap_b4fR-55QhpHCvvOF-54" value="42 18st" style="whiteSpace=wrap;html=1;rounded=1;" parent="1" vertex="1">
          <mxGeometry x="375" y="840" width="50" height="60" as="geometry" />
        </mxCell>
        <mxCell id="lap_b4fR-55QhpHCvvOF-55" style="edgeStyle=orthogonalEdgeStyle;rounded=0;orthogonalLoop=1;jettySize=auto;html=1;entryX=0.209;entryY=-0.043;entryDx=0;entryDy=0;entryPerimeter=0;endArrow=none;endFill=0;" parent="1" source="lap_b4fR-55QhpHCvvOF-51" target="lap_b4fR-55QhpHCvvOF-31" edge="1">
          <mxGeometry relative="1" as="geometry" />
        </mxCell>
        <mxCell id="lap_b4fR-55QhpHCvvOF-58" style="edgeStyle=orthogonalEdgeStyle;rounded=0;orthogonalLoop=1;jettySize=auto;html=1;exitX=0.5;exitY=0;exitDx=0;exitDy=0;entryX=0.209;entryY=1.038;entryDx=0;entryDy=0;entryPerimeter=0;endArrow=none;endFill=0;" parent="1" source="lap_b4fR-55QhpHCvvOF-52" target="lap_b4fR-55QhpHCvvOF-31" edge="1">
          <mxGeometry relative="1" as="geometry" />
        </mxCell>
        <mxCell id="lap_b4fR-55QhpHCvvOF-62" style="edgeStyle=orthogonalEdgeStyle;rounded=0;orthogonalLoop=1;jettySize=auto;html=1;exitX=0.5;exitY=0;exitDx=0;exitDy=0;entryX=0.25;entryY=1;entryDx=0;entryDy=0;endArrow=none;endFill=0;" parent="1" source="lap_b4fR-55QhpHCvvOF-59" target="lap_b4fR-55QhpHCvvOF-27" edge="1">
          <mxGeometry relative="1" as="geometry" />
        </mxCell>
        <mxCell id="lap_b4fR-55QhpHCvvOF-59" value="32 18st" style="whiteSpace=wrap;html=1;rounded=1;" parent="1" vertex="1">
          <mxGeometry x="20" y="840" width="50" height="60" as="geometry" />
        </mxCell>
        <mxCell id="lap_b4fR-55QhpHCvvOF-60" value="34 18st" style="whiteSpace=wrap;html=1;rounded=1;" parent="1" vertex="1">
          <mxGeometry x="80" y="840" width="50" height="60" as="geometry" />
        </mxCell>
        <mxCell id="lap_b4fR-55QhpHCvvOF-63" value="43 18st" style="whiteSpace=wrap;html=1;rounded=1;" parent="1" vertex="1">
          <mxGeometry x="480" y="650" width="50" height="60" as="geometry" />
        </mxCell>
        <mxCell id="lap_b4fR-55QhpHCvvOF-64" value="44 18st" style="whiteSpace=wrap;html=1;rounded=1;" parent="1" vertex="1">
          <mxGeometry x="480" y="840" width="50" height="60" as="geometry" />
        </mxCell>
        <mxCell id="lap_b4fR-55QhpHCvvOF-65" value="45 18st" style="whiteSpace=wrap;html=1;rounded=1;" parent="1" vertex="1">
          <mxGeometry x="550" y="650" width="50" height="60" as="geometry" />
        </mxCell>
        <mxCell id="lap_b4fR-55QhpHCvvOF-66" value="46 18st" style="whiteSpace=wrap;html=1;rounded=1;" parent="1" vertex="1">
          <mxGeometry x="550" y="840" width="50" height="60" as="geometry" />
        </mxCell>
        <mxCell id="lap_b4fR-55QhpHCvvOF-68" style="edgeStyle=orthogonalEdgeStyle;rounded=0;orthogonalLoop=1;jettySize=auto;html=1;exitX=0.5;exitY=1;exitDx=0;exitDy=0;entryX=0.195;entryY=-0.008;entryDx=0;entryDy=0;entryPerimeter=0;endArrow=none;endFill=0;" parent="1" source="lap_b4fR-55QhpHCvvOF-63" target="lap_b4fR-55QhpHCvvOF-37" edge="1">
          <mxGeometry relative="1" as="geometry" />
        </mxCell>
        <mxCell id="lap_b4fR-55QhpHCvvOF-69" style="edgeStyle=orthogonalEdgeStyle;rounded=0;orthogonalLoop=1;jettySize=auto;html=1;exitX=0.5;exitY=0;exitDx=0;exitDy=0;entryX=0.207;entryY=0.98;entryDx=0;entryDy=0;entryPerimeter=0;endArrow=none;endFill=0;" parent="1" source="lap_b4fR-55QhpHCvvOF-64" target="lap_b4fR-55QhpHCvvOF-37" edge="1">
          <mxGeometry relative="1" as="geometry" />
        </mxCell>
        <mxCell id="lap_b4fR-55QhpHCvvOF-70" style="edgeStyle=orthogonalEdgeStyle;rounded=0;orthogonalLoop=1;jettySize=auto;html=1;exitX=0.5;exitY=0;exitDx=0;exitDy=0;entryX=0.793;entryY=0.969;entryDx=0;entryDy=0;entryPerimeter=0;endArrow=none;endFill=0;" parent="1" source="lap_b4fR-55QhpHCvvOF-66" target="lap_b4fR-55QhpHCvvOF-37" edge="1">
          <mxGeometry relative="1" as="geometry" />
        </mxCell>
        <mxCell id="lap_b4fR-55QhpHCvvOF-72" style="edgeStyle=orthogonalEdgeStyle;rounded=0;orthogonalLoop=1;jettySize=auto;html=1;exitX=0.5;exitY=1;exitDx=0;exitDy=0;entryX=0.799;entryY=0.026;entryDx=0;entryDy=0;entryPerimeter=0;endArrow=none;endFill=0;" parent="1" source="lap_b4fR-55QhpHCvvOF-65" target="lap_b4fR-55QhpHCvvOF-37" edge="1">
          <mxGeometry relative="1" as="geometry" />
        </mxCell>
        <mxCell id="oGZRmLfjtdyFwrNTz8b4-1" value="I288 Overpass Raider encampment" style="whiteSpace=wrap;html=1;rounded=1;" parent="1" vertex="1">
          <mxGeometry x="160" y="20" width="120" height="60" as="geometry" />
        </mxCell>
      </root>
    </mxGraphModel>
  </diagram>
</mxfile>
